<?xml version="1.0" standalone="no"?>
<!DOCTYPE svg PUBLIC "-//W3C//DTD SVG 20010904//EN"
 "http://www.w3.org/TR/2001/REC-SVG-20010904/DTD/svg10.dtd">
<svg version="1.0" xmlns="http://www.w3.org/2000/svg"
 width="512.000000pt" height="512.000000pt" viewBox="0 0 512.000000 512.000000"
 preserveAspectRatio="xMidYMid meet">
<metadata>
Created by potrace 1.16, written by Peter Selinger 2001-2019
</metadata>
<g transform="translate(0.000000,512.000000) scale(0.100000,-0.100000)"
fill="#000000" stroke="none">
<path d="M0 2560 l0 -2560 2560 0 2560 0 0 2560 0 2560 -2560 0 -2560 0 0
-2560z m4220 1473 l0 -188 -188 -211 c-103 -115 -331 -372 -507 -570 -175
-197 -322 -361 -325 -364 -3 -3 -95 -106 -204 -230 -110 -124 -210 -236 -222
-250 -23 -25 -23 -25 -30 -482 l-7 -458 464 -2 464 -3 3 -187 2 -188 -1110 0
-1110 0 0 190 0 190 467 0 466 0 -6 173 c-4 94 -7 300 -7 457 l-1 285 -107
121 c-59 66 -269 302 -467 524 -198 222 -480 539 -627 704 l-268 301 0 188 0
187 1660 0 1660 0 0 -187z"/>
<path d="M1431 3813 c14 -16 85 -94 158 -175 l133 -148 838 0 837 0 144 158
c79 86 150 165 158 175 13 16 -45 17 -1140 17 l-1153 0 25 -27z"/>
</g>
</svg>
